<svg width="22" height="22" viewBox="0 0 22 22" fill="none" xmlns="http://www.w3.org/2000/svg">
<path fill-rule="evenodd" clip-rule="evenodd" d="M11 20.25C12.6861 20.25 14.2647 19.7996 15.6245 19.013C15.983 18.8056 16.4418 18.9281 16.6492 19.2866C16.8566 19.6452 16.7341 20.104 16.3755 20.3114C14.7936 21.2265 12.9568 21.75 11 21.75C5.06294 21.75 0.25 16.9371 0.25 11C0.25 5.06294 5.06294 0.25 11 0.25C16.9371 0.25 21.75 5.06294 21.75 11C21.75 12.9568 21.2265 14.7936 20.3114 16.3755C20.104 16.7341 19.6452 16.8566 19.2866 16.6492C18.9281 16.4418 18.8056 15.983 19.013 15.6245C19.7996 14.2647 20.25 12.6861 20.25 11C20.25 5.89137 16.1086 1.75 11 1.75C5.89137 1.75 1.75 5.89137 1.75 11C1.75 16.1086 5.89137 20.25 11 20.25Z" fill="#FF0009"/>
<path fill-rule="evenodd" clip-rule="evenodd" d="M7 7.25C6.58579 7.25 6.25 7.58579 6.25 8C6.25 8.41421 6.58579 8.75 7 8.75C7.41421 8.75 7.75 8.41421 7.75 8C7.75 7.58579 7.41421 7.25 7 7.25ZM4.75 8C4.75 6.75736 5.75736 5.75 7 5.75C8.24264 5.75 9.25 6.75736 9.25 8C9.25 9.2426 8.24264 10.25 7 10.25C5.75736 10.25 4.75 9.2426 4.75 8Z" fill="#FF0009"/>
<path fill-rule="evenodd" clip-rule="evenodd" d="M15 7.25C14.5858 7.25 14.25 7.58579 14.25 8C14.25 8.41421 14.5858 8.75 15 8.75C15.4142 8.75 15.75 8.41421 15.75 8C15.75 7.58579 15.4142 7.25 15 7.25ZM12.75 8C12.75 6.75736 13.7574 5.75 15 5.75C16.2426 5.75 17.25 6.75736 17.25 8C17.25 9.2426 16.2426 10.25 15 10.25C13.7574 10.25 12.75 9.2426 12.75 8Z" fill="#FF0009"/>
<path fill-rule="evenodd" clip-rule="evenodd" d="M12.9032 14.75C12.1652 14.75 11.4492 15.0012 10.8729 15.4622L9.4685 16.5857C9.1451 16.8444 8.67313 16.792 8.41438 16.4685C8.15562 16.1451 8.20806 15.6731 8.53151 15.4143L9.9359 14.2909C10.7781 13.6171 11.8246 13.25 12.9032 13.25H13.5559C13.9701 13.25 14.3059 13.5858 14.3059 14C14.3059 14.4142 13.9701 14.75 13.5559 14.75H12.9032Z" fill="#FF0009"/>
</svg>
