<svg width="95" height="28" viewBox="0 0 99 28" fill="none" xmlns="http://www.w3.org/2000/svg">
<rect x="0.5" y="0.5" width="98" height="27" rx="3.5" stroke="#FF0009"/>
<rect x="0.5" y="0.5" width="98" height="27" rx="3.5" stroke="url(#paint0_linear_2984_282)"/>
<path d="M29 24C34.5228 24 39 19.5228 39 14C39 8.47715 34.5228 4 29 4C23.4772 4 19 8.47715 19 14C19 19.5228 23.4772 24 29 24Z" fill="white"/>
<path d="M29 24C34.5228 24 39 19.5228 39 14C39 8.47715 34.5228 4 29 4C23.4772 4 19 8.47715 19 14C19 19.5228 23.4772 24 29 24Z" fill="#004C92" fill-opacity="0.1"/>
<g clip-path="url(#clip0_2984_282)">
<path d="M31.7109 8.95801C32.6365 8.95801 33.3896 9.71115 33.3896 10.6367C33.3896 11.5623 32.6365 12.3154 31.7109 12.3154C31.2318 12.3153 30.8001 12.112 30.4941 11.7891L27.8555 13.4248C27.9214 13.6045 27.96 13.7977 27.96 14C27.96 14.202 27.9212 14.3947 27.8555 14.5742L30.4941 16.21C30.8001 15.8873 31.232 15.6847 31.7109 15.6846C32.6365 15.6846 33.3896 16.4377 33.3896 17.3633C33.3896 18.2888 32.6365 19.042 31.7109 19.042C30.7856 19.0417 30.0332 18.2886 30.0332 17.3633C30.0332 17.1608 30.0698 16.9669 30.1357 16.7871L27.4971 15.1523C27.1911 15.475 26.7602 15.6787 26.2812 15.6787C25.3557 15.6787 24.6025 14.9255 24.6025 14C24.6025 13.0745 25.3557 12.3213 26.2812 12.3213C26.7599 12.3213 27.1911 12.5243 27.4971 12.8467L30.1357 11.2119C30.07 11.0323 30.0332 10.8388 30.0332 10.6367C30.0333 9.71134 30.7856 8.95826 31.7109 8.95801ZM31.7109 16.3652C31.1607 16.3655 30.7129 16.813 30.7129 17.3633C30.7129 17.9135 31.1608 18.3611 31.7109 18.3613C32.2613 18.3613 32.7099 17.9136 32.71 17.3633C32.71 16.8129 32.2613 16.3652 31.7109 16.3652ZM26.2812 13.002C25.7308 13.002 25.2832 13.4496 25.2832 14C25.2832 14.5504 25.7308 14.998 26.2812 14.998C26.8317 14.998 27.2793 14.5504 27.2793 14C27.2793 13.4496 26.8317 13.002 26.2812 13.002ZM31.7109 9.63867C31.1608 9.63892 30.7129 10.0865 30.7129 10.6367C30.7129 11.187 31.1607 11.6345 31.7109 11.6348C32.2613 11.6348 32.71 11.1871 32.71 10.6367C32.7099 10.0863 32.2613 9.63867 31.7109 9.63867Z" fill="white"/>
<path d="M31.7109 8.95801C32.6365 8.95801 33.3896 9.71115 33.3896 10.6367C33.3896 11.5623 32.6365 12.3154 31.7109 12.3154C31.2318 12.3153 30.8001 12.112 30.4941 11.7891L27.8555 13.4248C27.9214 13.6045 27.96 13.7977 27.96 14C27.96 14.202 27.9212 14.3947 27.8555 14.5742L30.4941 16.21C30.8001 15.8873 31.232 15.6847 31.7109 15.6846C32.6365 15.6846 33.3896 16.4377 33.3896 17.3633C33.3896 18.2888 32.6365 19.042 31.7109 19.042C30.7856 19.0417 30.0332 18.2886 30.0332 17.3633C30.0332 17.1608 30.0698 16.9669 30.1357 16.7871L27.4971 15.1523C27.1911 15.475 26.7602 15.6787 26.2812 15.6787C25.3557 15.6787 24.6025 14.9255 24.6025 14C24.6025 13.0745 25.3557 12.3213 26.2812 12.3213C26.7599 12.3213 27.1911 12.5243 27.4971 12.8467L30.1357 11.2119C30.07 11.0323 30.0332 10.8388 30.0332 10.6367C30.0333 9.71134 30.7856 8.95826 31.7109 8.95801ZM31.7109 16.3652C31.1607 16.3655 30.7129 16.813 30.7129 17.3633C30.7129 17.9135 31.1608 18.3611 31.7109 18.3613C32.2613 18.3613 32.7099 17.9136 32.71 17.3633C32.71 16.8129 32.2613 16.3652 31.7109 16.3652ZM26.2812 13.002C25.7308 13.002 25.2832 13.4496 25.2832 14C25.2832 14.5504 25.7308 14.998 26.2812 14.998C26.8317 14.998 27.2793 14.5504 27.2793 14C27.2793 13.4496 26.8317 13.002 26.2812 13.002ZM31.7109 9.63867C31.1608 9.63892 30.7129 10.0865 30.7129 10.6367C30.7129 11.187 31.1607 11.6345 31.7109 11.6348C32.2613 11.6348 32.71 11.1871 32.71 10.6367C32.7099 10.0863 32.2613 9.63867 31.7109 9.63867Z" fill="url(#paint1_linear_2984_282)"/>
<path d="M31.7109 8.95801C32.6365 8.95801 33.3896 9.71115 33.3896 10.6367C33.3896 11.5623 32.6365 12.3154 31.7109 12.3154C31.2318 12.3153 30.8001 12.112 30.4941 11.7891L27.8555 13.4248C27.9214 13.6045 27.96 13.7977 27.96 14C27.96 14.202 27.9212 14.3947 27.8555 14.5742L30.4941 16.21C30.8001 15.8873 31.232 15.6847 31.7109 15.6846C32.6365 15.6846 33.3896 16.4377 33.3896 17.3633C33.3896 18.2888 32.6365 19.042 31.7109 19.042C30.7856 19.0417 30.0332 18.2886 30.0332 17.3633C30.0332 17.1608 30.0698 16.9669 30.1357 16.7871L27.4971 15.1523C27.1911 15.475 26.7602 15.6787 26.2812 15.6787C25.3557 15.6787 24.6025 14.9255 24.6025 14C24.6025 13.0745 25.3557 12.3213 26.2812 12.3213C26.7599 12.3213 27.1911 12.5243 27.4971 12.8467L30.1357 11.2119C30.07 11.0323 30.0332 10.8388 30.0332 10.6367C30.0333 9.71134 30.7856 8.95826 31.7109 8.95801ZM31.7109 16.3652C31.1607 16.3655 30.7129 16.813 30.7129 17.3633C30.7129 17.9135 31.1608 18.3611 31.7109 18.3613C32.2613 18.3613 32.7099 17.9136 32.71 17.3633C32.71 16.8129 32.2613 16.3652 31.7109 16.3652ZM26.2812 13.002C25.7308 13.002 25.2832 13.4496 25.2832 14C25.2832 14.5504 25.7308 14.998 26.2812 14.998C26.8317 14.998 27.2793 14.5504 27.2793 14C27.2793 13.4496 26.8317 13.002 26.2812 13.002ZM31.7109 9.63867C31.1608 9.63892 30.7129 10.0865 30.7129 10.6367C30.7129 11.187 31.1607 11.6345 31.7109 11.6348C32.2613 11.6348 32.71 11.1871 32.71 10.6367C32.7099 10.0863 32.2613 9.63867 31.7109 9.63867Z" stroke="white" stroke-width="0.0833333"/>
</g>
<path d="M51.7814 11.6719C51.7417 11.2997 51.574 11.0099 51.2786 10.8026C50.986 10.5952 50.6053 10.4915 50.1365 10.4915C49.807 10.4915 49.5243 10.5412 49.2885 10.6406C49.0527 10.7401 48.8723 10.875 48.7473 11.0455C48.6223 11.2159 48.5584 11.4105 48.5556 11.6293C48.5556 11.8111 48.5968 11.9687 48.6792 12.1023C48.7644 12.2358 48.8794 12.3494 49.0243 12.4432C49.1692 12.5341 49.3297 12.6108 49.5059 12.6733C49.682 12.7358 49.8596 12.7884 50.0385 12.831L50.8567 13.0355C51.1863 13.1122 51.503 13.2159 51.807 13.3466C52.1138 13.4773 52.388 13.642 52.6294 13.8409C52.8738 14.0398 53.0669 14.2798 53.209 14.5611C53.351 14.8423 53.4221 15.1719 53.4221 15.5497C53.4221 16.0611 53.2914 16.5114 53.03 16.9006C52.7686 17.2869 52.3908 17.5895 51.8965 17.8082C51.405 18.0241 50.8098 18.1321 50.111 18.1321C49.432 18.1321 48.8425 18.027 48.3425 17.8168C47.8453 17.6065 47.4561 17.2997 47.1749 16.8963C46.8965 16.4929 46.7459 16.0014 46.7232 15.4219H48.2786C48.3013 15.7259 48.3951 15.9787 48.5598 16.1804C48.7246 16.3821 48.9391 16.5327 49.2033 16.6321C49.4703 16.7315 49.7686 16.7812 50.0982 16.7812C50.4419 16.7812 50.7431 16.7301 51.0016 16.6278C51.263 16.5227 51.4675 16.3778 51.6152 16.1932C51.763 16.0057 51.8382 15.7869 51.8411 15.5369C51.8382 15.3097 51.7715 15.1222 51.6408 14.9744C51.5101 14.8239 51.3269 14.6989 51.0911 14.5994C50.8581 14.4972 50.5854 14.4062 50.2729 14.3267L49.28 14.071C48.5613 13.8864 47.9931 13.6065 47.5755 13.2315C47.1607 12.8537 46.9533 12.3523 46.9533 11.7273C46.9533 11.2131 47.0925 10.7628 47.3709 10.3764C47.6522 9.99006 48.0343 9.69034 48.5172 9.47727C49.0002 9.26136 49.5471 9.15341 50.1578 9.15341C50.7772 9.15341 51.3198 9.26136 51.7857 9.47727C52.2544 9.69034 52.6223 9.98722 52.8894 10.3679C53.1564 10.7457 53.2942 11.1804 53.3027 11.6719H51.7814ZM56.3059 14.1648V18H54.7633V9.27273H56.2718V12.5668H56.3485C56.502 12.1974 56.7392 11.9062 57.0602 11.6932C57.3841 11.4773 57.796 11.3693 58.296 11.3693C58.7505 11.3693 59.1468 11.4645 59.4849 11.6548C59.823 11.8452 60.0843 12.1236 60.269 12.4901C60.4565 12.8565 60.5502 13.304 60.5502 13.8324V18H59.0076V14.071C59.0076 13.6307 58.894 13.2884 58.6667 13.044C58.4423 12.7969 58.127 12.6733 57.7207 12.6733C57.448 12.6733 57.2037 12.733 56.9877 12.8523C56.7747 12.9687 56.6071 13.1378 56.4849 13.3594C56.3656 13.581 56.3059 13.8494 56.3059 14.1648ZM64.0062 18.1321C63.5914 18.1321 63.2179 18.0582 62.8855 17.9105C62.5559 17.7599 62.2946 17.5384 62.1014 17.2457C61.911 16.9531 61.8159 16.5923 61.8159 16.1634C61.8159 15.794 61.8841 15.4886 62.0204 15.2472C62.1568 15.0057 62.3429 14.8125 62.5787 14.6676C62.8145 14.5227 63.0801 14.4134 63.3755 14.3395C63.6738 14.2628 63.9821 14.2074 64.3002 14.1733C64.6838 14.1335 64.9949 14.098 65.2335 14.0668C65.4721 14.0327 65.6454 13.9815 65.7534 13.9134C65.8642 13.8423 65.9196 13.733 65.9196 13.5852V13.5597C65.9196 13.2386 65.8244 12.9901 65.6341 12.8139C65.4437 12.6378 65.1696 12.5497 64.8116 12.5497C64.4338 12.5497 64.1341 12.6321 63.9125 12.7969C63.6937 12.9616 63.546 13.1562 63.4693 13.3807L62.0289 13.1761C62.1426 12.7784 62.3301 12.446 62.5914 12.179C62.8528 11.9091 63.1724 11.7074 63.5502 11.5739C63.9281 11.4375 64.3457 11.3693 64.8031 11.3693C65.1184 11.3693 65.4324 11.4062 65.7449 11.4801C66.0574 11.554 66.3429 11.6761 66.6014 11.8466C66.8599 12.0142 67.0673 12.2429 67.2235 12.5327C67.3826 12.8224 67.4622 13.1847 67.4622 13.6193V18H65.9792V17.1009H65.9281C65.8343 17.2827 65.7022 17.4531 65.5318 17.6122C65.3642 17.7685 65.1525 17.8949 64.8968 17.9915C64.644 18.0852 64.3471 18.1321 64.0062 18.1321ZM64.4068 16.9986C64.7164 16.9986 64.9849 16.9375 65.2122 16.8153C65.4395 16.6903 65.6142 16.5256 65.7363 16.321C65.8613 16.1165 65.9238 15.8935 65.9238 15.652V14.8807C65.8755 14.9205 65.7931 14.9574 65.6767 14.9915C65.563 15.0256 65.4352 15.0554 65.2931 15.081C65.1511 15.1065 65.0105 15.1293 64.8713 15.1491C64.7321 15.169 64.6113 15.1861 64.5091 15.2003C64.2789 15.2315 64.073 15.2827 63.8912 15.3537C63.7093 15.4247 63.5659 15.5241 63.4608 15.652C63.3556 15.777 63.3031 15.9389 63.3031 16.1378C63.3031 16.4219 63.4068 16.6364 63.6142 16.7812C63.8216 16.9261 64.0858 16.9986 64.4068 16.9986ZM69.0133 18V11.4545H70.5091V12.5455H70.5772C70.6966 12.1676 70.9011 11.8764 71.1909 11.6719C71.4835 11.4645 71.8173 11.3608 72.1923 11.3608C72.2775 11.3608 72.3727 11.3651 72.4778 11.3736C72.5858 11.3793 72.6752 11.3892 72.7463 11.4034V12.8224C72.6809 12.7997 72.5772 12.7798 72.4352 12.7628C72.296 12.7429 72.161 12.733 72.0304 12.733C71.7491 12.733 71.4963 12.794 71.2718 12.9162C71.0502 13.0355 70.8755 13.2017 70.7477 13.4148C70.6199 13.6278 70.5559 13.8736 70.5559 14.152V18H69.0133ZM76.3993 18.1278C75.7431 18.1278 75.1763 17.9915 74.699 17.7188C74.2246 17.4432 73.8596 17.054 73.6039 16.5511C73.3482 16.0455 73.2203 15.4503 73.2203 14.7656C73.2203 14.0923 73.3482 13.5014 73.6039 12.9929C73.8624 12.4815 74.2232 12.0838 74.6863 11.7997C75.1493 11.5128 75.6934 11.3693 76.3184 11.3693C76.7218 11.3693 77.1025 11.4347 77.4604 11.5653C77.8212 11.6932 78.1394 11.892 78.415 12.1619C78.6934 12.4318 78.9121 12.7756 79.0712 13.1932C79.2303 13.608 79.3098 14.1023 79.3098 14.6761V15.1491H73.9448V14.1094H77.8311C77.8283 13.8139 77.7644 13.5511 77.6394 13.321C77.5144 13.0881 77.3397 12.9048 77.1152 12.7713C76.8936 12.6378 76.6351 12.571 76.3397 12.571C76.0243 12.571 75.7473 12.6477 75.5087 12.8011C75.2701 12.9517 75.084 13.1506 74.9505 13.3977C74.8198 13.642 74.753 13.9105 74.7502 14.2031V15.1108C74.7502 15.4915 74.8198 15.8182 74.959 16.0909C75.0982 16.3608 75.2928 16.5682 75.5428 16.7131C75.7928 16.8551 76.0854 16.9261 76.4206 16.9261C76.6451 16.9261 76.8482 16.8949 77.03 16.8324C77.2118 16.767 77.3695 16.6719 77.503 16.5469C77.6365 16.4219 77.7374 16.267 77.8056 16.0824L79.2459 16.2443C79.155 16.625 78.9817 16.9574 78.726 17.2415C78.4732 17.5227 78.1493 17.7415 77.7544 17.8977C77.3596 18.0511 76.9078 18.1278 76.3993 18.1278Z" fill="white"/>
<path d="M51.7814 11.6719C51.7417 11.2997 51.574 11.0099 51.2786 10.8026C50.986 10.5952 50.6053 10.4915 50.1365 10.4915C49.807 10.4915 49.5243 10.5412 49.2885 10.6406C49.0527 10.7401 48.8723 10.875 48.7473 11.0455C48.6223 11.2159 48.5584 11.4105 48.5556 11.6293C48.5556 11.8111 48.5968 11.9687 48.6792 12.1023C48.7644 12.2358 48.8794 12.3494 49.0243 12.4432C49.1692 12.5341 49.3297 12.6108 49.5059 12.6733C49.682 12.7358 49.8596 12.7884 50.0385 12.831L50.8567 13.0355C51.1863 13.1122 51.503 13.2159 51.807 13.3466C52.1138 13.4773 52.388 13.642 52.6294 13.8409C52.8738 14.0398 53.0669 14.2798 53.209 14.5611C53.351 14.8423 53.4221 15.1719 53.4221 15.5497C53.4221 16.0611 53.2914 16.5114 53.03 16.9006C52.7686 17.2869 52.3908 17.5895 51.8965 17.8082C51.405 18.0241 50.8098 18.1321 50.111 18.1321C49.432 18.1321 48.8425 18.027 48.3425 17.8168C47.8453 17.6065 47.4561 17.2997 47.1749 16.8963C46.8965 16.4929 46.7459 16.0014 46.7232 15.4219H48.2786C48.3013 15.7259 48.3951 15.9787 48.5598 16.1804C48.7246 16.3821 48.9391 16.5327 49.2033 16.6321C49.4703 16.7315 49.7686 16.7812 50.0982 16.7812C50.4419 16.7812 50.7431 16.7301 51.0016 16.6278C51.263 16.5227 51.4675 16.3778 51.6152 16.1932C51.763 16.0057 51.8382 15.7869 51.8411 15.5369C51.8382 15.3097 51.7715 15.1222 51.6408 14.9744C51.5101 14.8239 51.3269 14.6989 51.0911 14.5994C50.8581 14.4972 50.5854 14.4062 50.2729 14.3267L49.28 14.071C48.5613 13.8864 47.9931 13.6065 47.5755 13.2315C47.1607 12.8537 46.9533 12.3523 46.9533 11.7273C46.9533 11.2131 47.0925 10.7628 47.3709 10.3764C47.6522 9.99006 48.0343 9.69034 48.5172 9.47727C49.0002 9.26136 49.5471 9.15341 50.1578 9.15341C50.7772 9.15341 51.3198 9.26136 51.7857 9.47727C52.2544 9.69034 52.6223 9.98722 52.8894 10.3679C53.1564 10.7457 53.2942 11.1804 53.3027 11.6719H51.7814ZM56.3059 14.1648V18H54.7633V9.27273H56.2718V12.5668H56.3485C56.502 12.1974 56.7392 11.9062 57.0602 11.6932C57.3841 11.4773 57.796 11.3693 58.296 11.3693C58.7505 11.3693 59.1468 11.4645 59.4849 11.6548C59.823 11.8452 60.0843 12.1236 60.269 12.4901C60.4565 12.8565 60.5502 13.304 60.5502 13.8324V18H59.0076V14.071C59.0076 13.6307 58.894 13.2884 58.6667 13.044C58.4423 12.7969 58.127 12.6733 57.7207 12.6733C57.448 12.6733 57.2037 12.733 56.9877 12.8523C56.7747 12.9687 56.6071 13.1378 56.4849 13.3594C56.3656 13.581 56.3059 13.8494 56.3059 14.1648ZM64.0062 18.1321C63.5914 18.1321 63.2179 18.0582 62.8855 17.9105C62.5559 17.7599 62.2946 17.5384 62.1014 17.2457C61.911 16.9531 61.8159 16.5923 61.8159 16.1634C61.8159 15.794 61.8841 15.4886 62.0204 15.2472C62.1568 15.0057 62.3429 14.8125 62.5787 14.6676C62.8145 14.5227 63.0801 14.4134 63.3755 14.3395C63.6738 14.2628 63.9821 14.2074 64.3002 14.1733C64.6838 14.1335 64.9949 14.098 65.2335 14.0668C65.4721 14.0327 65.6454 13.9815 65.7534 13.9134C65.8642 13.8423 65.9196 13.733 65.9196 13.5852V13.5597C65.9196 13.2386 65.8244 12.9901 65.6341 12.8139C65.4437 12.6378 65.1696 12.5497 64.8116 12.5497C64.4338 12.5497 64.1341 12.6321 63.9125 12.7969C63.6937 12.9616 63.546 13.1562 63.4693 13.3807L62.0289 13.1761C62.1426 12.7784 62.3301 12.446 62.5914 12.179C62.8528 11.9091 63.1724 11.7074 63.5502 11.5739C63.9281 11.4375 64.3457 11.3693 64.8031 11.3693C65.1184 11.3693 65.4324 11.4062 65.7449 11.4801C66.0574 11.554 66.3429 11.6761 66.6014 11.8466C66.8599 12.0142 67.0673 12.2429 67.2235 12.5327C67.3826 12.8224 67.4622 13.1847 67.4622 13.6193V18H65.9792V17.1009H65.9281C65.8343 17.2827 65.7022 17.4531 65.5318 17.6122C65.3642 17.7685 65.1525 17.8949 64.8968 17.9915C64.644 18.0852 64.3471 18.1321 64.0062 18.1321ZM64.4068 16.9986C64.7164 16.9986 64.9849 16.9375 65.2122 16.8153C65.4395 16.6903 65.6142 16.5256 65.7363 16.321C65.8613 16.1165 65.9238 15.8935 65.9238 15.652V14.8807C65.8755 14.9205 65.7931 14.9574 65.6767 14.9915C65.563 15.0256 65.4352 15.0554 65.2931 15.081C65.1511 15.1065 65.0105 15.1293 64.8713 15.1491C64.7321 15.169 64.6113 15.1861 64.5091 15.2003C64.2789 15.2315 64.073 15.2827 63.8912 15.3537C63.7093 15.4247 63.5659 15.5241 63.4608 15.652C63.3556 15.777 63.3031 15.9389 63.3031 16.1378C63.3031 16.4219 63.4068 16.6364 63.6142 16.7812C63.8216 16.9261 64.0858 16.9986 64.4068 16.9986ZM69.0133 18V11.4545H70.5091V12.5455H70.5772C70.6966 12.1676 70.9011 11.8764 71.1909 11.6719C71.4835 11.4645 71.8173 11.3608 72.1923 11.3608C72.2775 11.3608 72.3727 11.3651 72.4778 11.3736C72.5858 11.3793 72.6752 11.3892 72.7463 11.4034V12.8224C72.6809 12.7997 72.5772 12.7798 72.4352 12.7628C72.296 12.7429 72.161 12.733 72.0304 12.733C71.7491 12.733 71.4963 12.794 71.2718 12.9162C71.0502 13.0355 70.8755 13.2017 70.7477 13.4148C70.6199 13.6278 70.5559 13.8736 70.5559 14.152V18H69.0133ZM76.3993 18.1278C75.7431 18.1278 75.1763 17.9915 74.699 17.7188C74.2246 17.4432 73.8596 17.054 73.6039 16.5511C73.3482 16.0455 73.2203 15.4503 73.2203 14.7656C73.2203 14.0923 73.3482 13.5014 73.6039 12.9929C73.8624 12.4815 74.2232 12.0838 74.6863 11.7997C75.1493 11.5128 75.6934 11.3693 76.3184 11.3693C76.7218 11.3693 77.1025 11.4347 77.4604 11.5653C77.8212 11.6932 78.1394 11.892 78.415 12.1619C78.6934 12.4318 78.9121 12.7756 79.0712 13.1932C79.2303 13.608 79.3098 14.1023 79.3098 14.6761V15.1491H73.9448V14.1094H77.8311C77.8283 13.8139 77.7644 13.5511 77.6394 13.321C77.5144 13.0881 77.3397 12.9048 77.1152 12.7713C76.8936 12.6378 76.6351 12.571 76.3397 12.571C76.0243 12.571 75.7473 12.6477 75.5087 12.8011C75.2701 12.9517 75.084 13.1506 74.9505 13.3977C74.8198 13.642 74.753 13.9105 74.7502 14.2031V15.1108C74.7502 15.4915 74.8198 15.8182 74.959 16.0909C75.0982 16.3608 75.2928 16.5682 75.5428 16.7131C75.7928 16.8551 76.0854 16.9261 76.4206 16.9261C76.6451 16.9261 76.8482 16.8949 77.03 16.8324C77.2118 16.767 77.3695 16.6719 77.503 16.5469C77.6365 16.4219 77.7374 16.267 77.8056 16.0824L79.2459 16.2443C79.155 16.625 78.9817 16.9574 78.726 17.2415C78.4732 17.5227 78.1493 17.7415 77.7544 17.8977C77.3596 18.0511 76.9078 18.1278 76.3993 18.1278Z" fill="url(#paint2_linear_2984_282)"/>
<defs>
<linearGradient id="paint0_linear_2984_282" x1="0" y1="14" x2="99" y2="14" gradientUnits="userSpaceOnUse">
<stop stop-color="#004C92"/>
<stop offset="1" stop-color="#FF0009"/>
</linearGradient>
<linearGradient id="paint1_linear_2984_282" x1="24.6445" y1="14" x2="33.3482" y2="14" gradientUnits="userSpaceOnUse">
<stop stop-color="#004C92"/>
<stop offset="1" stop-color="#FF0009"/>
</linearGradient>
<linearGradient id="paint2_linear_2984_282" x1="46" y1="14" x2="80" y2="14" gradientUnits="userSpaceOnUse">
<stop stop-color="#004C92"/>
<stop offset="1" stop-color="#FF0009"/>
</linearGradient>
<clipPath id="clip0_2984_282">
<rect width="10" height="11.6667" fill="white" transform="translate(24 8.16675)"/>
</clipPath>
</defs>
</svg>
