<svg xmlns="http://www.w3.org/2000/svg" width="187" viewBox="0 0 187 41.811" xml:space="preserve" height="41.811"><path fill="#FFF" d="M187.068 13.463v28.415c-17.728 0-35.456 0-53.214-.026.668-1.672 1.363-3.32 2.066-4.964.576-1.346 1.165-2.686 1.741-4.032.618-1.445 1.224-2.896 1.841-4.341.511-1.197 1.037-2.388 1.547-3.585.574-1.346 1.133-2.698 1.707-4.044.485-1.137.987-2.268 1.475-3.404.093-.218.157-.448.243-.698h-4.562c-.707 1.661-1.412 3.329-2.126 4.993q-1.278 2.974-2.566 5.942c-.026.06-.093.103-.141.154-.037-.053-.087-.101-.11-.159-.608-1.543-1.223-3.083-1.818-4.631-.807-2.1-1.599-4.205-2.386-6.279h-5.063l.247.594c.768 1.829 1.54 3.656 2.304 5.487.705 1.691 1.398 3.386 2.102 5.077.696 1.671 1.378 3.348 2.11 5.004.214.484.147.876-.071 1.308-.235.465-.448.942-.657 1.419a675 675 0 0 0-1.816 4.177c-.287.666-.556 1.339-.833 2.009H.068c0-6.587 0-13.174.025-19.783a.5.5 0 0 1 .11.218c.119.477.234.955.347 1.459.399 1.276 1.108 2.37 1.766 3.516.066.126.131.228.192.331.425.717.85 1.435 1.278 2.177a251 251 0 0 0 1.628 2.846c.261.448.538.886.81 1.352.676 1.157 1.35 2.29 2.034 3.443.168.221.306.443.49.617.361.343.748.659 1.128 1.01.362.291.72.558 1.098.839.142.091.261.174.386.245 1.559.871 3.238 1.267 5.018 1.258 4.423-.022 8.846-.035 13.269-.075.961-.009 1.871-.321 2.782-.683.463-.232.902-.46 1.358-.687.049-.033.081-.068.137-.107.662-.396 1.257-.841 1.76-1.431.206-.203.422-.376.572-.594.482-.699.954-1.405 1.401-2.127.307-.496.567-1.02.868-1.544a17 17 0 0 0 .443-.727q.858-1.483 1.709-2.968c.362-.634.717-1.272 1.095-1.92.501-.843.993-1.668 1.459-2.508.267-.48.491-.983.746-1.498a152 152 0 0 0 .535-1.696c.222-.786.232-1.562.202-2.372.004-.29.036-.552-.001-.805-.167-1.168-.444-2.307-1.004-3.385a346 346 0 0 0-1.783-3.131c-.475-.824-.952-1.646-1.444-2.459a.46.46 0 0 0-.329-.193 302 302 0 0 0-4.664 0 .4.4 0 0 0-.293.182c-.16.314-.278.649-.425.97-.647 1.418-1.297 2.835-1.952 4.277-.611 1.361-1.216 2.698-1.833 4.057-.347.772-.683 1.522-1.039 2.284a13 13 0 0 0-.36.761c-.142.329-.277.662-.427 1.014-.341.718-.68 1.411-.998 2.113-.268.59-.513 1.191-.789 1.799a687 687 0 0 0-2.604 5.698c-.163.366-.338.702-.472 1.053-.089.235-.232.281-.46.28a329 329 0 0 0-5.163.004c-.392.004-.698-.013-.78-.478-.018-.1-.107-.188-.166-.306-.347-.789-.692-1.552-1.037-2.316-.268-.593-.535-1.186-.806-1.802a26 26 0 0 0-.327-.71c-.272-.574-.545-1.149-.818-1.749-.201-.47-.396-.915-.602-1.355-.331-.708-.669-1.412-1.007-2.144a83 83 0 0 0-.621-1.418q-.4-.893-.807-1.781c-.378-.821-.76-1.639-1.144-2.484a44 44 0 0 0-.404-.919c1.808 0 3.574-.003 5.34.009.101.001.239.102.294.195.165.284.297.586.446.907a88 88 0 0 0 .621 1.421c.294.657.585 1.315.888 1.967.284.61.583 1.213.875 1.845.826 1.849 1.652 3.672 2.505 5.554.715-1.551 1.398-3.028 2.075-4.508.133-.29.236-.593.374-.903a382 382 0 0 0 1.877-4.087c.145-.321.27-.65.424-.988.497-1.065.973-2.118 1.46-3.193.191-.435.37-.848.568-1.27.028-.048.039-.087.069-.137.068-.117.116-.224.176-.353.117-.255.222-.489.338-.744l.269-.607c.032-.073.055-.127.098-.193.21-.455.399-.898.609-1.353a43 43 0 0 0 .701-1.512c.277-.632.544-1.268.834-1.915.279-.572.554-1.126.795-1.694.095-.225.219-.288.453-.287 1.644.01 3.287.005 4.931.005h.372c-.006-.082.006-.133-.014-.167-.739-1.273-1.583-2.452-2.781-3.355-1.08-.814-2.239-1.438-3.557-1.762-.39-.099-.771-.223-1.156-.334h157.029c0 3.097 0 6.186-.032 9.306-5.868.031-11.705.031-17.54.031v4.069h6.825v19.32h3.993V13.463zM76.047 6.949l.927-1.983c-.099-.016-.132-.026-.165-.026-1.781-.001-3.563.004-5.344-.007-.218-.001-.287.108-.359.266q-.844 1.87-1.693 3.737c-.374.82-.759 1.634-1.131 2.455-.726 1.601-1.445 3.205-2.171 4.805-.399.88-.812 1.753-1.21 2.633-.831 1.839-1.656 3.68-2.485 5.521q-.772 1.723-1.552 3.442c-.101.222-.228.431-.373.703-.469-1.005-.91-1.932-1.336-2.867-.858-1.887-1.706-3.777-2.559-5.666-.447-.989-.891-1.978-1.353-2.96-.047-.101-.204-.212-.311-.213-1.837-.013-3.675-.009-5.547-.009l8.019 17.59c1.996 0 3.991-.004 5.986.006.224.001.273-.13.343-.284q1.18-2.61 2.369-5.217c.392-.859.801-1.711 1.191-2.571.847-1.868 1.684-3.74 2.529-5.608q1.148-2.535 2.299-5.069 1.135-2.506 2.272-5.011c.548-1.205 1.101-2.408 1.654-3.665m-1.595 25.524c.197.159.386.33.593.475 1.422.996 3.046 1.359 4.739 1.405.883.024 1.773-.092 2.654-.193a8.55 8.55 0 0 0 3.294-1.077c1.352-.772 2.376-1.842 2.974-3.291.151-.365.251-.751.4-1.203-.299.041-.503.087-.708.095-.795.03-1.591.086-2.385.058a1.8 1.8 0 0 0-1.347.483c-.997.874-2.212 1.233-3.501 1.27-.672.019-1.362-.109-2.022-.263-1.195-.279-2.236-.84-2.899-1.929-.275-.452-.496-.935-.463-1.51h13.15c.079 0 .171.026.234-.006.082-.042.18-.118.201-.199.048-.179.069-.369.073-.556.043-1.676-.016-3.329-.663-4.922-.695-1.712-1.83-3.002-3.457-3.852-1.578-.824-3.3-1.074-5.049-1.143-.662-.026-1.331.069-1.995.126a6.65 6.65 0 0 0-3.024 1.049c-1.504.959-2.504 2.343-3.148 3.999-.515 1.323-.821 2.686-.784 4.109.013.503.113 1.005.197 1.504.256 1.532.775 2.967 1.699 4.225.35.476.801.878 1.239 1.349m40.831-16.748v1.128h-3.161v3.681h3.171v13.333h4.339V20.55h4.966v-3.652h-5.201c.098-.77.115-1.522.301-2.23.347-1.319 1.115-2.02 2.536-1.997.507.008 1.018.211 1.514.367.356.112.689.294 1.043.45l1.612-3.169c-.079-.048-.124-.078-.172-.103a11.3 11.3 0 0 0-3.227-1.095c-.834-.147-1.664-.18-2.484-.04a6.4 6.4 0 0 0-2.237.854c-.981.596-1.758 1.37-2.292 2.384-.552 1.046-.761 2.168-.707 3.411m36.433-6.326h-2.991v4.072h6.826v19.317h3.991V13.451h6.734V9.404zM91.064 19.857v14.021h4.33v-.383c0-3.088.008-6.177-.004-9.265-.004-1.106.507-1.985 1.259-2.69.944-.886 2.084-1.327 3.43-1.117a5.6 5.6 0 0 1 2.442 1.02c.185.133.276.142.389-.079.532-1.047 1.081-2.085 1.62-3.128.219-.425.201-.536-.212-.776-.478-.277-.958-.567-1.471-.762-1.301-.496-2.656-.739-4.044-.517-1.372.219-2.396 1.042-3.272 2.072-.078.092-.153.187-.244.299l-.222-1.99h-4.001zm14.884-2.837v16.855h4.309V16.529h-4.308zm1.48-2.746c.437.001.896.088 1.308-.014 1.415-.349 2.082-1.623 1.856-2.92-.227-1.305-1.415-2.206-2.869-2.009-1.604.218-2.414 1.769-2.083 3.102.227.91.811 1.541 1.787 1.841"/><path d="M129.119 41.879a39 39 0 0 1 .801-2.009 642 642 0 0 1 1.816-4.177c.209-.477.422-.954.657-1.419.218-.432.285-.824.071-1.308-.731-1.656-1.414-3.333-2.11-5.004-.704-1.691-1.397-3.387-2.102-5.077-.764-1.831-1.536-3.658-2.304-5.487l-.247-.594h5.063c.787 2.074 1.579 4.18 2.386 6.279.595 1.548 1.209 3.088 1.818 4.631.023.058.073.106.11.159.048-.051.115-.094.141-.154q1.289-2.968 2.567-5.942c.714-1.664 1.419-3.332 2.126-4.993h4.562c-.086.25-.15.48-.243.698-.488 1.136-.989 2.267-1.475 3.404-.575 1.346-1.133 2.698-1.707 4.044-.51 1.197-1.036 2.388-1.547 3.585-.618 1.445-1.223 2.896-1.841 4.341-.576 1.346-1.165 2.686-1.741 4.032a642 642 0 0 0-2.097 4.964c-1.558.026-3.115.026-4.704.026"/><path fill="#377CE4" d="M30.007.068c.416.111.798.236 1.186.331 1.318.324 2.476.948 3.557 1.762 1.198.903 2.041 2.082 2.781 3.355.02.034.008.086.014.167h-.372c-1.644 0-3.287.005-4.931-.005-.234-.001-.358.062-.453.287a17 17 0 0 1-.83 1.686c-8.148-.292-16.242-.59-24.332-.912.172-.321.347-.615.507-.916.72-1.355 1.594-2.583 2.805-3.556A9.8 9.8 0 0 1 13.56.406c.46-.124.927-.226 1.392-.338z"/><path d="M187.068 13.432c-2.242.032-4.485.032-6.754.032v19.33h-3.993v-19.32h-6.826v-4.07h17.54c.032 1.332.032 2.664.032 4.028"/><path fill="#FFF" d="M14.92.068c-.433.112-.9.214-1.361.339a9.8 9.8 0 0 0-3.621 1.861c-1.21.973-2.084 2.201-2.805 3.556-.16.301-.335.595-.528.927-.214.359-.408.68-.593 1.006-.453.795-.902 1.593-1.373 2.401-.272.471-.524.93-.791 1.399-.033.055-.05.1-.088.155-.136.207-.251.405-.377.624-.144.253-.277.484-.43.727a4 4 0 0 0-.176.352.6.6 0 0 1-.095.122c-.256.434-.492.855-.748 1.289-.066.1-.108.191-.158.276-.572.974-1.121 1.958-1.365 3.102-.053.212-.09.403-.143.59-.059.209-.133.415-.2.623V.068z"/><path fill="#4191E4" d="M.068 19.44c.067-.23.141-.436.2-.646.053-.187.09-.378.179-.584.469.008.894.04 1.319.057 1.243.049 2.486.097 3.73.135 1.055.031 2.11.046 3.164.071.145.004.289.042.433.039.49-.009.98-.028 1.469-.044.38.82.763 1.638 1.14 2.459q.408.889.807 1.781c.208.463.411.929.588 1.419a56 56 0 0 1-2.216-.041q-1.934-.066-3.868-.135c-1.233-.044-2.466-.094-3.699-.133-.92-.03-1.841-.047-2.762-.07q-.173-.717-.35-1.433a.9.9 0 0 0-.11-.249c-.025-.04-.025-.07-.002-.133.008-.139-.008-.245-.023-.35 0-.565 0-1.13.022-1.737a1 1 0 0 0-.022-.293z"/><path fill="#FFF" d="M.068 21.61c.015.078.031.183.023.3-.023-.083-.023-.177-.023-.3m0-2.03a.7.7 0 0 1 .022.234c-.022-.063-.022-.135-.022-.234"/><path d="M76.046 6.976c-.552 1.231-1.105 2.434-1.653 3.639q-1.137 2.505-2.272 5.011-1.151 2.534-2.299 5.069c-.845 1.869-1.682 3.741-2.529 5.608-.39.86-.799 1.712-1.191 2.571q-1.188 2.606-2.369 5.217c-.069.154-.118.285-.342.284-1.995-.01-3.99-.006-5.986-.006l-8.019-17.59c1.873 0 3.71-.004 5.547.009.107.001.263.113.311.213.461.982.906 1.971 1.353 2.96.853 1.888 1.702 3.779 2.559 5.666.425.935.867 1.863 1.336 2.867.145-.272.273-.481.373-.703q.78-1.72 1.552-3.442c.828-1.84 1.653-3.682 2.485-5.521.398-.88.811-1.754 1.21-2.633.726-1.601 1.444-3.205 2.171-4.805.372-.821.757-1.635 1.131-2.455q.85-1.866 1.693-3.737c.072-.159.141-.268.359-.266 1.781.012 3.563.007 5.344.007.033 0 .066.01.165.026-.315.673-.621 1.328-.928 2.01m-1.612 25.48c-.421-.453-.872-.855-1.222-1.331-.924-1.258-1.443-2.693-1.699-4.225-.083-.499-.183-1.001-.197-1.504-.037-1.422.268-2.785.784-4.109.645-1.655 1.645-3.04 3.148-3.998a6.65 6.65 0 0 1 3.024-1.049c.664-.057 1.333-.152 1.995-.126 1.749.069 3.471.318 5.049 1.143 1.627.85 2.763 2.14 3.457 3.852.647 1.594.706 3.247.663 4.922a2.4 2.4 0 0 1-.073.556c-.022.08-.119.157-.201.199-.063.032-.155.006-.234.006h-13.15c-.033.575.188 1.058.463 1.51.663 1.089 1.704 1.65 2.899 1.929.66.154 1.35.282 2.022.263 1.289-.037 2.504-.396 3.501-1.27.397-.348.81-.502 1.347-.483.793.029 1.59-.027 2.385-.058.205-.008.409-.053.708-.095-.149.452-.249.838-.4 1.203-.598 1.449-1.622 2.52-2.974 3.291a8.5 8.5 0 0 1-3.294 1.077c-.881.101-1.771.217-2.654.193-1.693-.046-3.317-.41-4.739-1.405-.207-.145-.396-.316-.61-.493m1.48-9.247h9.197c0-.109.018-.192-.003-.264-.372-1.3-1.138-2.246-2.439-2.716-.847-.306-1.711-.468-2.609-.332-.484.073-.978.131-1.442.278a4 4 0 0 0-2.14 1.569c-.28.407-.474.873-.698 1.317-.015.029.048.098.134.149m39.372-7.511c-.054-1.21.155-2.331.707-3.377.535-1.014 1.311-1.788 2.292-2.384a6.4 6.4 0 0 1 2.237-.854c.82-.14 1.651-.108 2.484.04 1.137.201 2.206.568 3.227 1.095.048.025.092.055.172.103l-1.612 3.169c-.354-.156-.688-.338-1.043-.45-.496-.156-1.006-.359-1.514-.367-1.421-.023-2.189.678-2.536 1.997-.186.708-.203 1.46-.301 2.23h5.202v3.652h-4.966v13.322h-4.339V20.539h-3.171v-3.681h3.161zm36.466-6.292h14.526v4.047h-6.734v19.342h-3.991V13.476h-6.825V9.404z"/><path fill="#4AA3E5" d="M38.504 34.169c-.281.512-.541 1.037-.848 1.532a52 52 0 0 1-1.401 2.127c-.15.218-.366.391-.604.593-.33-.014-.609-.047-.888-.058-1.279-.049-2.558-.092-3.836-.137l-3.735-.135-3.87-.136q-1.85-.068-3.701-.134l-3.904-.136c-1.223-.044-2.445-.093-3.667-.133-.876-.029-1.752-.043-2.628-.071-.392-.012-.783-.042-1.174-.063a142 142 0 0 1-2.004-3.443.66.66 0 0 1 .315-.076c1.188.042 2.375.089 3.563.132 1.323.047 2.646.097 3.969.135 1.067.031 2.134.047 3.2.069.146.003.293-.004.44-.006.056.093.145.181.163.281.082.465.389.482.78.478 1.721-.019 3.442-.012 5.163-.004.228.001.371-.046.46-.28a10 10 0 0 1 .503-1.053c1.268.021 2.5.066 3.732.111 1.221.045 2.441.093 3.662.134 1.479.049 2.959.084 4.438.14.625.024 1.248.088 1.872.134"/><path d="M91.064 19.823v-3.262h4.001l.222 1.99c.091-.112.166-.207.244-.299.876-1.03 1.9-1.853 3.272-2.072 1.388-.222 2.743.021 4.044.517.513.196.994.485 1.471.762.412.24.431.351.212.776-.538 1.044-1.087 2.082-1.62 3.128-.113.222-.204.212-.389.079a5.6 5.6 0 0 0-2.442-1.02c-1.346-.21-2.486.231-3.43 1.117-.752.706-1.264 1.584-1.259 2.69.012 3.088.004 6.177.004 9.265v.383h-4.33z"/><path fill="#3A83E4" d="M4.66 10.146q.675-1.196 1.353-2.389c.186-.326.379-.647.589-.982 8.114.286 16.208.584 24.338.889a34 34 0 0 1-.78 1.91c-.22.503-.453 1-.733 1.511-1.117-.034-2.181-.083-3.246-.123-1.301-.049-2.602-.091-3.902-.137l-3.666-.134c-1.323-.047-2.647-.089-3.97-.137-1.2-.043-2.399-.093-3.598-.133-1.503-.05-3.007-.084-4.51-.141-.626-.024-1.25-.088-1.874-.134"/><path fill="#469CE5" d="M38.524 34.157c-.644-.034-1.267-.098-1.892-.122-1.479-.057-2.959-.091-4.438-.14-1.221-.041-2.441-.089-3.662-.134l-3.727-.136a183 183 0 0 1 2.6-5.672c.98.034 1.908.086 2.836.123 1.288.052 2.576.092 3.864.137 1.243.044 2.486.096 3.729.133 1.054.032 2.11.04 3.164.075.252.009.502.087.753.133-.358.636-.713 1.274-1.075 1.908q-.852 1.486-1.709 2.968a17 17 0 0 1-.443.727"/><path fill="#3E8AE4" d="M10.558 18.442c-.486.04-.976.06-1.465.068-.144.003-.288-.035-.433-.039-1.055-.025-2.11-.04-3.164-.071a387 387 0 0 1-3.73-.135c-.425-.017-.849-.049-1.309-.079.2-1.127.749-2.111 1.321-3.085.05-.086.092-.176.184-.265.112.016.176.043.241.046.998.048 1.995.097 2.993.136 1.257.05 2.514.091 3.771.136l3.805.136 3.771.135 3.805.135c1.257.045 2.514.096 3.771.133 1.068.032 2.136.047 3.205.07a96 96 0 0 1-1.481 3.17 99 99 0 0 1-2.005-.058l-3.668-.134q-1.969-.068-3.938-.133c-.145-.295-.277-.598-.442-.882-.054-.093-.193-.195-.294-.195-1.766-.012-3.532-.009-5.34-.009.141.315.27.605.404.919"/><path d="M105.949 16.986v-.457h4.309v17.345h-4.309z"/><path fill="#4395E4" d="M41.771 28.542c-.271-.034-.521-.112-.773-.121-1.054-.036-2.109-.044-3.164-.075-1.243-.037-2.486-.089-3.729-.133-1.288-.046-2.576-.086-3.864-.137-.928-.037-1.856-.089-2.816-.135.224-.597.469-1.198.737-1.788.319-.702.657-1.394 1.026-2.108.137.002.234.036.333.04q1.902.07 3.803.137l3.803.135c1.257.045 2.513.095 3.77.133 1.022.031 2.045.047 3.068.069-.244.493-.468.996-.735 1.476-.466.839-.958 1.664-1.459 2.508"/><path fill="#3F8CE4" d="M43.713 16.302c.556 1.054.833 2.192.999 3.361.036.253.005.516-.03.805-.438.009-.84-.02-1.243-.035q-1.952-.07-3.903-.137c-1.222-.044-2.444-.093-3.666-.134-1.459-.049-2.917-.09-4.376-.139-.166-.006-.331-.043-.497-.065a301 301 0 0 1 1.851-4.035c.896.021 1.758.073 2.62.109q1.85.077 3.7.136c1.515.049 3.03.09 4.545.134"/><path fill="#479DE5" d="M17.727 34.202c-.144.027-.29.034-.437.031-1.067-.021-2.134-.038-3.2-.069-1.323-.038-2.646-.088-3.969-.135-1.188-.043-2.375-.09-3.563-.132a1 1 0 0 0-.318.051 21 21 0 0 1-.827-1.307 83 83 0 0 1-1.602-2.857 17 17 0 0 1 1.524-.015q1.949.063 3.897.134c1.231.044 2.463.095 3.694.133.987.031 1.974.047 2.961.07l.802 1.779c.345.764.689 1.528 1.037 2.316"/><path fill="#3C86E4" d="M43.709 16.278c-1.511-.02-3.026-.061-4.541-.11a380 380 0 0 1-3.7-.136c-.862-.036-1.723-.089-2.614-.134.62-1.417 1.271-2.834 1.917-4.252.146-.321.265-.656.425-.97a.4.4 0 0 1 .293-.182q2.332-.018 4.664 0c.113.001.27.095.329.193.492.813.969 1.636 1.444 2.459a346 346 0 0 1 1.783 3.131"/><path fill="#4497E4" d="M.549 23.772c.924-.003 1.845.015 2.766.044 1.233.04 2.466.089 3.699.133q1.934.07 3.868.135c.729.025 1.458.045 2.22.066.367.705.705 1.41 1.036 2.118.206.44.401.885.566 1.36a34 34 0 0 1-1.852-.025l-3.871-.136c-1.234-.044-2.468-.095-3.702-.133-.989-.031-1.978-.047-2.967-.07-.654-1.122-1.364-2.217-1.763-3.493"/><path fill="#4BA6E5" d="M8.257 37.437c.381.001.772.03 1.164.042.876.028 1.752.042 2.628.071 1.223.04 2.445.09 3.667.133l3.904.136 3.701.134 3.87.136 3.735.135c1.279.046 2.558.088 3.836.137.279.011.558.044.868.068-.451.581-1.046 1.026-1.727 1.401-.663-.028-1.283-.039-1.922-.07-.525-.029-1.031-.038-1.564-.048-.122 0-.216 0-.33-.02-.525-.029-1.031-.038-1.564-.048-.122 0-.216 0-.33-.02-.525-.029-1.031-.038-1.564-.048-.122 0-.216 0-.33-.02-.525-.029-1.031-.038-1.564-.048-.122 0-.216 0-.33-.02-.525-.029-1.031-.038-1.564-.048-.122 0-.216 0-.33-.02-.525-.029-1.031-.038-1.564-.048-.122 0-.216 0-.33-.02-.525-.029-1.031-.038-1.564-.048-.122 0-.216 0-.33-.02-.525-.029-1.031-.038-1.564-.048-.122 0-.216 0-.33-.02-.525-.029-1.031-.038-1.564-.048-.122 0-.216 0-.33-.02-.525-.029-1.031-.038-1.564-.048-.122 0-.216 0-.33-.02-.525-.029-1.031-.038-1.564-.048h-.342l-1.262.003c-.376-.327-.762-.643-1.124-.986-.183-.174-.321-.396-.49-.617"/><path fill="#4190E4" d="M16.233 18.633c1.309.019 2.622.062 3.934.108l3.668.134c.651.024 1.301.046 1.984.07a9 9 0 0 1-.372.977 143 143 0 0 1-1.903 4.075c-.178-.015-.31-.043-.442-.045-.482-.009-.964-.001-1.445-.014-1.014-.028-2.027-.065-3.041-.098-.292-.606-.591-1.209-.875-1.819-.304-.652-.594-1.31-.888-1.967a88 88 0 0 1-.621-1.421"/><path fill="#3B85E4" d="M4.64 10.157c.645.034 1.269.099 1.894.122 1.503.057 3.007.091 4.51.141 1.2.04 2.399.09 3.598.133 1.323.047 2.647.09 3.97.137 1.222.043 2.444.091 3.666.134 1.301.046 2.602.088 3.902.137 1.064.04 2.128.09 3.225.136a10 10 0 0 1-.588 1.34c-.523-.011-.994-.038-1.464-.056q-1.884-.07-3.769-.136l-3.802-.135-3.769-.135-3.836-.136c-1.245-.044-2.49-.095-3.735-.133-.966-.03-1.932-.041-2.898-.072-.56-.018-1.12-.058-1.68-.088.252-.459.503-.918.775-1.389"/><path fill="#4191E4" d="M30.986 19.98c.177 0 .342.038.508.043 1.458.049 2.917.09 4.376.139 1.222.041 2.444.09 3.666.134 1.301.046 2.602.089 3.903.137.403.015.805.044 1.239.066.065.779.055 1.555-.197 2.341-.428.005-.819-.024-1.211-.039q-1.902-.07-3.803-.137c-1.257-.045-2.513-.095-3.77-.134-.977-.03-1.955-.045-2.933-.07-.775-.02-1.55-.038-2.324-.073-.159-.007-.315-.089-.472-.136.336-.75.671-1.5 1.018-2.271"/><path fill="#3D88E4" d="M27.333 15.742a111 111 0 0 1-3.216-.047c-1.257-.037-2.514-.088-3.771-.133l-3.805-.136-3.771-.135-3.805-.136c-1.257-.045-2.514-.086-3.771-.136-.998-.04-1.995-.089-2.993-.136-.065-.003-.13-.03-.221-.058.209-.433.444-.855.719-1.268.944.065 1.849.133 2.755.174 1.256.057 2.513.093 3.77.138l3.804.136 3.77.135 3.804.136c1.268.045 2.536.097 3.804.133 1.158.033 2.316.049 3.474.072-.18.413-.359.826-.55 1.261"/><path fill="#459AE5" d="M2.315 27.288q1.48 0 2.963.047c1.234.038 2.468.089 3.702.133q1.935.069 3.871.136c.606.021 1.211.038 1.853.052.309.569.581 1.143.853 1.718.108.229.215.458.327.71q-1.476.001-2.957-.046c-1.232-.038-2.463-.089-3.694-.133-1.299-.046-2.598-.094-3.897-.134-.5-.016-1.001-.014-1.528-.009-.451-.706-.876-1.424-1.301-2.141-.061-.104-.126-.206-.192-.331"/><path fill="#4192E4" d="M29.947 22.265c.178.035.334.116.493.123.774.035 1.549.053 2.324.073.978.025 1.956.04 2.933.07 1.257.039 2.513.089 3.77.134q1.902.066 3.803.137c.392.015.783.044 1.206.066a30 30 0 0 1-.499 1.669 103 103 0 0 1-3.08-.047c-1.257-.038-2.513-.089-3.77-.133l-3.803-.135q-1.902-.066-3.803-.137c-.099-.004-.197-.037-.322-.061.111-.335.246-.667.388-.997a13 13 0 0 1 .36-.761"/><path fill="#4CA8E5" d="M32.403 40.65c-.887.358-1.797.671-2.758.68-4.423.041-8.846.053-13.269.075-1.78.009-3.459-.387-5.018-1.258a1.6 1.6 0 0 1-.348-.256c.443-.008.867.009 1.292.024l3.868.136 3.733.135 3.868.136c1.233.044 2.466.093 3.699.134.875.029 1.751.045 2.626.07q1.077.03 2.153.07c.052.002.102.035.153.054"/><path d="M107.402 14.262c-.95-.288-1.534-.919-1.761-1.829-.332-1.333.479-2.884 2.083-3.102 1.453-.197 2.641.704 2.869 2.009.226 1.298-.44 2.571-1.856 2.92-.412.102-.871.015-1.335.002"/><path fill="#3C87E4" d="M2.973 13.051c.133-.231.266-.463.437-.711.136.002.234.035.333.04.639.027 1.278.047 1.918.07l3.768.135 3.802.135 3.768.135 3.836.136 3.734.135 3.903.136c-.105.233-.21.466-.358.722-.58 0-1.117-.025-1.655-.045q-1.866-.069-3.733-.135l-3.868-.136-3.699-.134-3.868-.136c-1.244-.044-2.488-.095-3.733-.133-1.01-.031-2.021-.043-3.032-.071-.47-.013-.94-.043-1.41-.07-.049-.003-.096-.046-.145-.07"/><path fill="#4BA7E5" d="M32.428 40.647c-.075-.015-.126-.049-.177-.051a274 274 0 0 0-2.153-.07c-.875-.025-1.751-.041-2.626-.07-1.233-.04-2.466-.09-3.699-.134l-3.868-.136-3.733-.135-3.868-.136c-.425-.015-.849-.033-1.312-.038a13 13 0 0 1-1.116-.814c.406-.025.816-.026 1.262-.002.166.142.284.185.365-.024.505.009 1.011.018 1.541.072.154.162.273.205.354-.004.505.009 1.011.018 1.541.072.154.162.273.205.354-.004.505.009 1.011.018 1.541.072.154.162.273.205.354-.004.505.009 1.011.018 1.541.072.154.162.273.205.354-.004.505.009 1.011.018 1.541.072.154.162.273.205.354-.004.505.009 1.011.018 1.541.072.154.162.273.205.354-.004.505.009 1.011.018 1.541.072.154.162.273.205.354-.004.505.009 1.011.018 1.541.072.154.162.273.205.354-.004.505.009 1.011.018 1.541.072.154.162.273.205.354-.004.505.009 1.011.018 1.541.072.154.162.273.205.354-.004.505.009 1.011.018 1.542.074.137.074.246.12.358.125.474.021.949.031 1.423.044-.439.229-.878.457-1.341.689"/><path fill="#3C86E4" d="M28.483 13.238a219 219 0 0 1-3.914-.114l-3.734-.135-3.836-.136-3.768-.135-3.802-.135-3.768-.135c-.639-.023-1.279-.043-1.918-.07-.099-.004-.197-.037-.322-.061.088-.202.203-.399.365-.595.101.017.154.044.208.047.896.048 1.792.1 2.688.137 1.257.052 2.514.092 3.771.137l3.805.136 3.771.135 3.805.135c1.257.045 2.514.096 3.771.133 1.045.031 2.091.047 3.137.069z"/><path fill="#4497E4" d="M18.618 23.866c1.013.007 2.027.044 3.041.072.481.013.963.005 1.445.014.132.002.263.03.421.058a7 7 0 0 1-.327.902c-.676 1.48-1.36 2.957-2.075 4.508-.853-1.882-1.679-3.705-2.505-5.554"/><path fill="#3C88E4" d="M2.953 13.062c.068.013.115.056.165.059.47.028.94.057 1.41.07 1.011.028 2.021.041 3.032.071 1.244.038 2.488.089 3.733.133l3.868.136 3.699.135 3.868.136 3.733.135c.538.02 1.075.045 1.644.067a.66.66 0 0 1-.166.329c-.646-.013-1.241-.037-1.835-.058l-3.837-.136-3.736-.135-3.871-.136-3.702-.135c-1.29-.046-2.58-.096-3.871-.134-1.079-.031-2.158-.038-3.237-.075-.356-.012-.709-.085-1.063-.13.049-.108.099-.216.168-.334"/><path fill="#3B86E4" d="M28.752 12.631a113 113 0 0 1-3.147-.049c-1.257-.037-2.514-.088-3.771-.133l-3.805-.136-3.771-.135-3.805-.136c-1.257-.045-2.514-.085-3.771-.137-.897-.037-1.792-.089-2.688-.137-.054-.003-.107-.03-.187-.057-.009-.056.008-.101.041-.156.576.02 1.136.06 1.696.078.966.031 1.932.042 2.898.072 1.245.039 2.49.089 3.735.133l3.836.136 7.571.271q1.884.066 3.769.136c.471.018.941.045 1.443.069.01.054-.013.107-.045.181"/><path fill="#3D88E4" d="M2.777 13.414c.362.027.716.1 1.071.112 1.079.037 2.158.043 3.237.075 1.29.038 2.581.088 3.871.134l3.702.135 3.871.136 3.736.135 3.837.136c.594.021 1.189.045 1.816.069.022.04.012.079-.017.127a211 211 0 0 1-3.493-.063c-1.268-.036-2.536-.088-3.804-.133l-3.804-.136-3.77-.135-3.804-.136c-1.257-.045-2.514-.081-3.77-.138a72 72 0 0 1-2.734-.186c.004-.052.026-.083.056-.131"/><path fill="#4BA7E5" d="M33.786 39.96c-.492-.015-.966-.025-1.441-.046a.9.9 0 0 1-.338-.105 25 25 0 0 1 1.872.026c-.013.056-.045.091-.094.125"/><path fill="#FFF" d="M75.883 23.206c-.056-.05-.119-.119-.104-.149.224-.444.418-.91.698-1.317a4.02 4.02 0 0 1 2.14-1.569c.464-.147.958-.205 1.442-.278.899-.135 1.763.026 2.609.332 1.301.47 2.067 1.416 2.439 2.716.021.072.003.156.003.264z"/><path fill="#4BA7E5" d="M20.945 39.376c-.053.209-.171.167-.306.024.089-.024.183-.024.306-.024m9.472.338c-.053.209-.171.167-.306.024.089-.024.183-.024.306-.024m-1.895-.068c-.053.209-.171.167-.306.024.089-.024.183-.024.306-.024m-1.894-.067c-.053.209-.171.167-.306.024.089-.024.183-.024.306-.024m-1.894-.068c-.053.209-.171.167-.306.024.089-.024.183-.024.306-.024m-1.895-.068c-.053.209-.171.167-.306.024.089-.024.183-.024.306-.024m-3.788-.135c-.053.209-.171.167-.306.024.089-.024.183-.024.306-.024m-1.895-.068c-.053.209-.171.167-.306.024.089-.024.183-.024.306-.024m-1.894-.067c-.053.209-.171.167-.306.024.089-.024.183-.024.306-.024m-1.894-.068c-.053.209-.171.167-.306.024.089-.024.183-.024.306-.024m-1.895-.068c-.053.209-.171.167-.306.024.089-.024.183-.024.306-.024"/></svg>