<svg width="64" height="55" viewBox="0 0 174 154" fill="none" xmlns="http://www.w3.org/2000/svg">
<path fill-rule="evenodd" clip-rule="evenodd" d="M41.5871 28.1524H88.913V33.0382H41.5871V28.1524ZM41.5871 43.8869H115.624V48.7728H41.5871V43.8869ZM49.0144 95.9835H74.6022C71.1103 99.5355 67.69 103.152 64.3413 106.839H60.9067C57.1072 103.038 53.1431 99.4214 49.0216 95.9835H49.0144ZM22.5323 0H99.8751V34.693H134.679V46.0267C128.189 50.4061 121.835 54.971 115.624 59.7285V59.6215H41.5871V64.5073H109.513C105.098 68.0308 100.755 71.647 96.4977 75.3631H41.5871V80.249H91.0023C87.0955 83.7867 83.253 87.4101 79.4893 91.1048H42.8823C36.4209 86.1833 29.6161 81.704 22.5251 77.7026V0H22.5323Z" fill="url(#paint0_linear_2350_233)"/>
<path fill-rule="evenodd" clip-rule="evenodd" d="M173.275 29.0511C131.366 51.1551 93.9147 80.791 62.8101 116.468C47.9984 100.185 30.1886 86.8752 10.361 77.2533C3.4489 91.7966 0 99.0719 0 99.0719C24.8364 112.617 46.6604 131.04 64.1625 153.223C95.1025 107.389 131.774 65.6557 173.282 29.044" fill="url(#paint1_linear_2350_233)"/>
<path fill-rule="evenodd" clip-rule="evenodd" d="M99.8751 0L134.679 34.693H99.8751V0Z" fill="url(#paint2_linear_2350_233)"/>
<defs>
<linearGradient id="paint0_linear_2350_233" x1="22.5323" y1="53.4161" x2="134.679" y2="53.4161" gradientUnits="userSpaceOnUse">
<stop stop-color="#ED1F24"/>
<stop offset="0.03" stop-color="#DC222B"/>
<stop offset="0.13" stop-color="#AB2C43"/>
<stop offset="0.23" stop-color="#803558"/>
<stop offset="0.33" stop-color="#5C3D69"/>
<stop offset="0.44" stop-color="#3E4378"/>
<stop offset="0.55" stop-color="#274883"/>
<stop offset="0.68" stop-color="#174B8A"/>
<stop offset="0.82" stop-color="#0E4D8F"/>
<stop offset="1" stop-color="#0B4E91"/>
</linearGradient>
<linearGradient id="paint1_linear_2350_233" x1="0" y1="91.1333" x2="173.275" y2="91.1333" gradientUnits="userSpaceOnUse">
<stop stop-color="#EB1F24"/>
<stop offset="0.11" stop-color="#B72A3D"/>
<stop offset="0.22" stop-color="#893353"/>
<stop offset="0.34" stop-color="#623B66"/>
<stop offset="0.45" stop-color="#424276"/>
<stop offset="0.58" stop-color="#2A4781"/>
<stop offset="0.7" stop-color="#184B8A"/>
<stop offset="0.84" stop-color="#0E4D8F"/>
<stop offset="1" stop-color="#0B4E91"/>
</linearGradient>
<linearGradient id="paint2_linear_2350_233" x1="99.8751" y1="17.3465" x2="134.679" y2="17.3465" gradientUnits="userSpaceOnUse">
<stop stop-color="#ED1F24"/>
<stop offset="0.13" stop-color="#BF2839"/>
<stop offset="0.29" stop-color="#893354"/>
<stop offset="0.46" stop-color="#5B3D69"/>
<stop offset="0.61" stop-color="#38447A"/>
<stop offset="0.76" stop-color="#1F4987"/>
<stop offset="0.89" stop-color="#104C8E"/>
<stop offset="1" stop-color="#0B4E91"/>
</linearGradient>
</defs>
</svg>
