<?xml version="1.0" encoding="UTF-8"?>
<svg id="Layer_1" xmlns="http://www.w3.org/2000/svg" xmlns:xlink="http://www.w3.org/1999/xlink" version="1.1" width="64" height="55" viewBox="0 0 64 55">
  <!-- Generator: Adobe Illustrator 29.8.1, SVG Export Plug-In . SVG Version: 2.1.1 Build 2)  -->
  <defs>
    <style>
      .st0 {
        fill: none;
      }

      .st1 {
        fill: url(#linear-gradient);
      }

      .st2 {
        clip-path: url(#clippath);
      }
    </style>
    <clipPath id="clippath">
      <path class="st0" d="M23.7,0c-4.7,0-9,2.5-11.4,6.6l-8.3,14.3c-2.4,4.1-2.4,9.1,0,13.2l8.3,14.3c2.4,4.1,6.7,6.6,11.4,6.6h16.6c4.7,0,9-2.5,11.4-6.6l8.3-14.3c2.4-4.1,2.4-9.1,0-13.2l-4-7h-6.7l-14.8,32.6h-8.2l-10.6-23.3h7.5l7.2,15.8,14.3-31.6h7.5l-.5-.8c-2.4-4.1-6.7-6.6-11.4-6.6h-16.6Z"/>
    </clipPath>
    <linearGradient id="linear-gradient" x1="-261.9" y1="212.9" x2="-260.6" y2="212.9" gradientTransform="translate(-9060.1 -7392) rotate(-180) scale(34.8 -34.8)" gradientUnits="userSpaceOnUse">
      <stop offset="0" stop-color="#4a75ba"/>
      <stop offset="1" stop-color="#63b9e8"/>
    </linearGradient>
  </defs>
  <g class="st2">
    <rect class="st1" x="2.3" y="-4.8" width="59.4" height="64.6" transform="translate(2.2 57.3) rotate(-85.7)"/>
  </g>
</svg>