<svg width="150" height="70" viewBox="0 0 787 243" fill="none" xmlns="http://www.w3.org/2000/svg">
<g clip-path="url(#clip0_2917_756)">
<path fill-rule="evenodd" clip-rule="evenodd" d="M59.5074 40.4123H127.226V47.4258H59.5074V40.4123ZM59.5074 62.9989H165.448V70.0124H59.5074V62.9989ZM70.1352 137.783H106.749C101.752 142.882 96.8583 148.073 92.0666 153.366H87.152C81.7152 147.909 76.043 142.718 70.1455 137.783H70.1352ZM32.2417 0H142.912V49.8012H192.713V66.0705C183.427 72.3571 174.335 78.9099 165.448 85.7391V85.5855H59.5074V92.5991H156.704C150.386 97.657 144.171 102.848 138.079 108.182H59.5074V115.196H130.216C124.626 120.274 119.128 125.476 113.742 130.779H61.3606C52.1151 123.715 42.378 117.285 32.2314 111.541V0H32.2417Z" fill="url(#paint0_linear_2917_756)"/>
<path fill-rule="evenodd" clip-rule="evenodd" d="M247.941 41.7026C187.973 73.4324 134.383 115.974 89.8756 167.188C68.6814 143.813 43.1972 124.708 14.8257 110.896C4.93507 131.773 0 142.216 0 142.216C35.5386 161.66 66.7668 188.106 91.8107 219.949C136.083 154.155 188.556 94.2478 247.951 41.6924" fill="url(#paint1_linear_2917_756)"/>
<path fill-rule="evenodd" clip-rule="evenodd" d="M142.912 0L192.714 49.8012H142.912V0Z" fill="url(#paint2_linear_2917_756)"/>
<path d="M572.468 135.715V109.135H675.572V135.715H640.269V228.416H607.771V135.715H572.468Z" fill="#EC2027"/>
<path d="M683.896 135.715V109.135H787V135.715H751.697V228.416H719.199V135.715H683.896Z" fill="#EC2027"/>
<path d="M204.754 210.334C195.365 210.334 187.236 208.491 180.376 204.816C173.516 201.13 168.222 195.877 164.485 189.048C160.748 182.219 158.885 174.079 158.885 164.629C158.885 155.178 160.748 147.591 164.485 140.731C168.222 133.871 173.464 128.537 180.212 124.718C186.959 120.899 194.904 118.995 204.027 118.995C210.703 118.995 216.764 120.049 222.242 122.158C227.709 124.268 232.399 127.298 236.289 131.24C240.18 135.192 243.19 139.953 245.299 145.533C247.409 151.114 248.463 157.369 248.463 164.301V171.99H168.734V154.298H233.494L218.525 157.82C218.525 154.349 217.993 151.421 216.928 149.015C215.863 146.608 214.286 144.776 212.208 143.496C210.129 142.216 207.539 141.571 204.447 141.571C201.355 141.571 198.846 142.216 196.758 143.496C194.679 144.776 193.092 146.619 191.997 149.015C190.901 151.421 190.358 154.349 190.358 157.82V170.946C190.358 174.683 190.983 177.806 192.242 180.314C193.491 182.823 195.252 184.707 197.525 185.956C199.788 187.215 202.471 187.84 205.573 187.84C207.764 187.84 209.761 187.533 211.573 186.918C213.385 186.304 214.931 185.424 216.211 184.277C217.491 183.13 218.453 181.758 219.088 180.151L247.429 183.437C246.037 188.833 243.415 193.553 239.545 197.608C235.675 201.662 230.801 204.795 224.935 207.017C219.068 209.229 212.341 210.334 204.764 210.334H204.754Z" fill="#0E4D8C"/>
<path d="M260.627 208.656V120.285H291.845V137.015H292.643C294.24 130.821 296.78 126.346 300.251 123.572C303.722 120.797 307.96 119.405 312.977 119.405C314.36 119.405 315.742 119.486 317.104 119.64C318.465 119.794 319.786 120.039 321.066 120.357V147.336C319.571 146.906 317.667 146.599 315.342 146.414C313.018 146.23 311.001 146.138 309.302 146.138C306.097 146.138 303.24 146.855 300.732 148.298C298.223 149.742 296.278 151.738 294.886 154.298C293.493 156.858 292.807 159.899 292.807 163.421V208.645H260.627V208.656Z" fill="#0E4D8C"/>
<path d="M347.482 111.961C342.946 111.961 339.117 110.507 335.994 107.599C332.871 104.691 331.315 101.179 331.315 97.0736C331.315 92.9679 332.871 89.3229 335.994 86.4663C339.117 83.6097 342.946 82.1865 347.482 82.1865C352.018 82.1865 355.765 83.6199 358.888 86.4663C362.011 89.3229 363.567 92.8553 363.567 97.0736C363.567 101.292 362.011 104.763 358.888 107.64C355.765 110.517 351.966 111.961 347.482 111.961ZM331.387 208.655V120.285H363.567V208.655H331.387Z" fill="#0E4D8C"/>
<path d="M436.733 120.285V143.824H373.017V120.285H436.733ZM387.587 208.655V116.599C387.587 109.452 388.836 103.555 391.344 98.9065C393.853 94.2683 397.508 90.7974 402.31 88.5039C407.112 86.2105 412.846 85.0637 419.521 85.0637C423.525 85.0637 427.405 85.2992 431.173 85.7804C434.941 86.2616 437.675 86.661 439.374 86.9784L435.77 110.353C434.654 110.087 433.303 109.872 431.726 109.708C430.149 109.545 428.726 109.473 427.446 109.473C424.456 109.473 422.398 110.118 421.282 111.398C420.166 112.678 419.603 114.49 419.603 116.845V208.666H387.587V208.655Z" fill="#0E4D8C"/>
<path d="M449.541 240.272L455.06 217.061L461.142 217.942C464.285 218.638 466.988 218.771 469.23 218.341C471.473 217.911 473.111 217.061 474.155 215.781C475.2 214.501 475.527 212.904 475.159 210.979L474.524 208.737L441.545 120.285H475.251L486.616 159.99C488.326 166.021 489.708 172.103 490.783 178.246C491.848 184.389 493.107 191.004 494.541 198.099H487.896C489.278 191.004 490.711 184.359 492.175 178.164C493.64 171.98 495.288 165.919 497.1 159.99L509.592 120.285H542.816L506.151 217.389C504.278 222.406 501.851 226.808 498.872 230.597C495.882 234.385 492.063 237.334 487.425 239.443C482.787 241.552 476.961 242.607 469.978 242.607C466.353 242.607 462.729 242.402 459.135 242.003C455.531 241.603 452.347 241.03 449.572 240.283L449.541 240.272Z" fill="#0E4D8C"/>
</g>
<defs>
<linearGradient id="paint0_linear_2917_756" x1="32.2417" y1="76.6779" x2="192.713" y2="76.6779" gradientUnits="userSpaceOnUse">
<stop stop-color="#ED1F24"/>
<stop offset="0.03" stop-color="#DC222B"/>
<stop offset="0.13" stop-color="#AB2C43"/>
<stop offset="0.23" stop-color="#803558"/>
<stop offset="0.33" stop-color="#5C3D69"/>
<stop offset="0.44" stop-color="#3E4378"/>
<stop offset="0.55" stop-color="#274883"/>
<stop offset="0.68" stop-color="#174B8A"/>
<stop offset="0.82" stop-color="#0E4D8F"/>
<stop offset="1" stop-color="#0B4E91"/>
</linearGradient>
<linearGradient id="paint1_linear_2917_756" x1="0" y1="130.821" x2="247.941" y2="130.821" gradientUnits="userSpaceOnUse">
<stop stop-color="#EB1F24"/>
<stop offset="0.11" stop-color="#B72A3D"/>
<stop offset="0.22" stop-color="#893353"/>
<stop offset="0.34" stop-color="#623B66"/>
<stop offset="0.45" stop-color="#424276"/>
<stop offset="0.58" stop-color="#2A4781"/>
<stop offset="0.7" stop-color="#184B8A"/>
<stop offset="0.84" stop-color="#0E4D8F"/>
<stop offset="1" stop-color="#0B4E91"/>
</linearGradient>
<linearGradient id="paint2_linear_2917_756" x1="142.912" y1="24.9006" x2="192.714" y2="24.9006" gradientUnits="userSpaceOnUse">
<stop stop-color="#ED1F24"/>
<stop offset="0.13" stop-color="#BF2839"/>
<stop offset="0.29" stop-color="#893354"/>
<stop offset="0.46" stop-color="#5B3D69"/>
<stop offset="0.61" stop-color="#38447A"/>
<stop offset="0.76" stop-color="#1F4987"/>
<stop offset="0.89" stop-color="#104C8E"/>
<stop offset="1" stop-color="#0B4E91"/>
</linearGradient>
<clipPath id="clip0_2917_756">
<rect width="787" height="242.596" fill="white"/>
</clipPath>
</defs>
</svg>
