<?xml version="1.0" encoding="UTF-8"?>
<svg id="Layer_1" width="150" height="70" xmlns="http://www.w3.org/2000/svg" xmlns:xlink="http://www.w3.org/1999/xlink" version="1.1" viewBox="0 0 787.4 294.7">
  <!-- Generator: Adobe Illustrator 29.3.1, SVG Export Plug-In . SVG Version: 2.1.0 Build 151)  -->
  <defs>
    <style>
      .st0 {
        fill: #0e4d8c;
      }

      .st1 {
        fill: #ec2027;
      }

      .st2 {
        fill: url(#linear-gradient);
      }

      .st2, .st3, .st4 {
        fill-rule: evenodd;
      }

      .st3 {
        fill: url(#linear-gradient1);
      }

      .st4 {
        fill: url(#linear-gradient2);
      }
    </style>
    <linearGradient id="linear-gradient" x1="39.4" y1="103.2" x2="196.1" y2="103.2" gradientUnits="userSpaceOnUse">
      <stop offset="0" stop-color="#ed1f24"/>
      <stop offset="0" stop-color="#dc222b"/>
      <stop offset=".1" stop-color="#ab2c43"/>
      <stop offset=".2" stop-color="#803558"/>
      <stop offset=".3" stop-color="#5c3d69"/>
      <stop offset=".4" stop-color="#3e4378"/>
      <stop offset=".6" stop-color="#274883"/>
      <stop offset=".7" stop-color="#174b8a"/>
      <stop offset=".8" stop-color="#0e4d8f"/>
      <stop offset="1" stop-color="#0b4e91"/>
    </linearGradient>
    <linearGradient id="linear-gradient1" x1="7.9" y1="156.1" x2="250.1" y2="156.1" gradientUnits="userSpaceOnUse">
      <stop offset="0" stop-color="#ed1f24"/>
      <stop offset="0" stop-color="#eb1f24"/>
      <stop offset=".1" stop-color="#b72a3d"/>
      <stop offset=".2" stop-color="#893353"/>
      <stop offset=".3" stop-color="#623b66"/>
      <stop offset=".5" stop-color="#424276"/>
      <stop offset=".6" stop-color="#2a4781"/>
      <stop offset=".7" stop-color="#184b8a"/>
      <stop offset=".8" stop-color="#0e4d8f"/>
      <stop offset="1" stop-color="#0b4e91"/>
    </linearGradient>
    <linearGradient id="linear-gradient2" x1="147.5" y1="52.6" x2="196.1" y2="52.6" gradientUnits="userSpaceOnUse">
      <stop offset="0" stop-color="#ed1f24"/>
      <stop offset=".1" stop-color="#bf2839"/>
      <stop offset=".3" stop-color="#893354"/>
      <stop offset=".5" stop-color="#5b3d69"/>
      <stop offset=".6" stop-color="#38447a"/>
      <stop offset=".8" stop-color="#1f4987"/>
      <stop offset=".9" stop-color="#104c8e"/>
      <stop offset="1" stop-color="#0b4e91"/>
    </linearGradient>
  </defs>
  <g>
    <path class="st2" d="M66,67.8h66.1v6.8h-66.1v-6.8ZM66,89.8h103.5v6.8h-103.5v-6.8ZM76.4,162.9h35.8c-4.9,5-9.7,10.1-14.3,15.2h-4.8c-5.3-5.3-10.9-10.4-16.6-15.2ZM39.4,28.3h108.1v48.6h48.6v15.9c-9.1,6.1-17.9,12.5-26.6,19.2v-.2h-103.5v6.8h94.9c-6.2,4.9-12.2,10-18.2,15.2h-76.7v6.8h69.1c-5.5,5-10.8,10-16.1,15.2h-51.2c-9-6.9-18.5-13.2-28.4-18.8V28.3Z"/>
    <path class="st3" d="M250.1,69c-58.6,31-110.9,72.5-154.4,122.6-20.7-22.8-45.6-41.5-73.3-55-9.7,20.4-14.5,30.6-14.5,30.6,34.7,19,65.2,44.8,89.7,75.9,43.2-64.3,94.5-122.8,152.5-174.1"/>
    <polygon class="st4" points="147.5 28.3 196.1 76.9 147.5 76.9 147.5 28.3"/>
  </g>
  <g>
    <path class="st1" d="M567,160.8v-26h100.7v26h-34.5v90.5h-31.7v-90.5h-34.5Z"/>
    <path class="st1" d="M675.8,160.8v-26h100.7v26h-34.5v90.5h-31.7v-90.5h-34.5Z"/>
  </g>
  <g>
    <path class="st0" d="M207.9,233.7c-9.2,0-17.1-1.8-23.8-5.4-6.7-3.6-11.9-8.7-15.5-15.4-3.6-6.7-5.5-14.6-5.5-23.8s1.8-16.6,5.5-23.3c3.6-6.7,8.8-11.9,15.4-15.6,6.6-3.7,14.3-5.6,23.3-5.6s12.4,1,17.8,3.1c5.3,2.1,9.9,5,13.7,8.9,3.8,3.9,6.7,8.5,8.8,14,2.1,5.4,3.1,11.6,3.1,18.3v7.5h-77.9v-17.3h63.2l-14.6,3.4c0-3.4-.5-6.3-1.6-8.6-1-2.3-2.6-4.1-4.6-5.4s-4.6-1.9-7.6-1.9-5.5.6-7.5,1.9c-2,1.3-3.6,3-4.7,5.4-1.1,2.3-1.6,5.2-1.6,8.6v12.8c0,3.6.6,6.7,1.8,9.1,1.2,2.5,2.9,4.3,5.2,5.5,2.2,1.2,4.8,1.8,7.9,1.8s4.1-.3,5.9-.9c1.8-.6,3.3-1.5,4.5-2.6,1.3-1.1,2.2-2.5,2.8-4l27.7,3.2c-1.4,5.3-3.9,9.9-7.7,13.8-3.8,4-8.5,7-14.3,9.2-5.7,2.2-12.3,3.2-19.7,3.2Z"/>
    <path class="st0" d="M318.6,145.8v23h-62.2v-23h62.2ZM270.6,232.1v-89.9c0-7,1.2-12.7,3.7-17.3,2.4-4.5,6-7.9,10.7-10.2,4.7-2.2,10.3-3.4,16.8-3.4s7.7.2,11.4.7c3.7.5,6.3.9,8,1.2l-3.5,22.8c-1.1-.3-2.4-.5-3.9-.6-1.5-.2-2.9-.2-4.2-.2-2.9,0-4.9.6-6,1.9-1.1,1.3-1.6,3-1.6,5.3v89.7h-31.3Z"/>
    <path class="st0" d="M347.8,137.6c-4.4,0-8.2-1.4-11.2-4.3-3-2.8-4.6-6.3-4.6-10.3s1.5-7.6,4.6-10.4c3-2.8,6.8-4.2,11.2-4.2s8.1,1.4,11.1,4.2c3,2.8,4.6,6.2,4.6,10.4s-1.5,7.5-4.6,10.3c-3,2.8-6.8,4.2-11.1,4.2ZM332.1,232.1v-86.3h31.4v86.3h-31.4Z"/>
    <path class="st0" d="M378.9,232.1v-86.3h30.5v16.3h.8c1.6-6,4-10.4,7.4-13.1,3.4-2.7,7.5-4.1,12.4-4.1s2.7,0,4,.2,2.6.4,3.9.7v26.3c-1.5-.4-3.3-.7-5.6-.9-2.3-.2-4.2-.3-5.9-.3-3.1,0-5.9.7-8.4,2.1-2.5,1.4-4.4,3.4-5.7,5.9-1.4,2.5-2,5.5-2,8.9v44.2h-31.4Z"/>
    <path class="st0" d="M451.1,263l5.4-22.7,5.9.9c3.1.7,5.7.8,7.9.4,2.2-.4,3.8-1.3,4.8-2.5,1-1.3,1.3-2.8,1-4.7l-.6-2.2-32.2-86.4h32.9l11.1,38.8c1.7,5.9,3,11.8,4.1,17.8,1,6,2.3,12.5,3.7,19.4h-6.5c1.4-6.9,2.7-13.4,4.2-19.5,1.4-6,3-12,4.8-17.7l12.2-38.8h32.4l-35.8,94.8c-1.8,4.9-4.2,9.2-7.1,12.9-2.9,3.7-6.6,6.6-11.2,8.6-4.5,2.1-10.2,3.1-17,3.1s-7.1-.2-10.6-.6c-3.5-.4-6.6-1-9.3-1.7Z"/>
  </g>
</svg>