<?xml version="1.0" encoding="UTF-8"?>
<svg id="Layer_1" xmlns="http://www.w3.org/2000/svg" xmlns:xlink="http://www.w3.org/1999/xlink" version="1.1" viewBox="0 0 150 70">
  <!-- Generator: Adobe Illustrator 29.8.1, SVG Export Plug-In . SVG Version: 2.1.1 Build 2)  -->
  <defs>
    <style>
      .st0 {
        fill: none;
      }

      .st1 {
        fill: url(#linear-gradient);
      }

      .st2 {
        fill: #222832;
      }

      .st3 {
        clip-path: url(#clippath);
      }
    </style>
    <clipPath id="clippath">
      <path class="st0" d="M16.3,19.4c-2.7,0-5.1,1.4-6.5,3.7l-4.7,8.1c-1.3,2.3-1.3,5.1,0,7.5l4.7,8.1c1.3,2.3,3.8,3.7,6.5,3.7h9.4c2.7,0,5.1-1.4,6.5-3.7l4.7-8.1c1.3-2.3,1.3-5.1,0-7.5l-2.3-4h-3.8l-8.4,18.4h-4.6l-6-13.2h4.3l4.1,8.9,8.1-17.9h4.3l-.3-.5c-1.3-2.3-3.8-3.7-6.5-3.7h-9.4Z"/>
    </clipPath>
    <linearGradient id="linear-gradient" x1="-218.4" y1="218.9" x2="-217.6" y2="218.9" gradientTransform="translate(-7568.8 -7592) rotate(-180) scale(34.8 -34.8)" gradientUnits="userSpaceOnUse">
      <stop offset="0" stop-color="#4a75ba"/>
      <stop offset="1" stop-color="#63b9e8"/>
    </linearGradient>
  </defs>
  <path class="st2" d="M61.2,36.9s.6-2.6,3.7-2.6,3.5,2.6,3.5,2.6h-7.2ZM71.5,39.6s1.5-8-7.2-8-6.4,6.6-6.4,6.6c0,0-.1,7.1,6.6,7.1s6.7-4.3,6.7-4.3h-2.9c0,.1-1.4,1.8-4.1,1.3-3-.6-3-2.7-3-2.7h10.2Z"/>
  <path class="st2" d="M72.8,44.9h3.2v-7.7s.3-1.7,2.1-2.3c1.8-.7,3.5.7,3.5.7l1.5-2.8s-1.3-1.3-3.8-1.3-3.3,1.9-3.3,1.9l-.2-1.6h-3v13.1Z"/>
  <rect class="st2" x="84" y="31.9" width="3.2" height="13.1"/>
  <path class="st2" d="M87.5,28.3c0,1-.8,1.9-1.9,1.9s-1.9-.8-1.9-1.9.8-1.9,1.9-1.9,1.9.8,1.9,1.9"/>
  <path class="st2" d="M91.1,34.8v10.1h3.2v-10.1h3.8v-2.7h-3.9s-.3-2.6,1.4-3.2c1.2-.4,2.6.6,2.6.6l1.2-2.4s-2.8-1.6-5.2-.7c-3.2,1.2-3.1,4.3-3.1,4.3v1.3h-2.4v2.7h2.4Z"/>
  <polygon class="st2" points="99 32.1 102.7 32.1 106 40.6 109.7 32.1 113.1 32.1 105 51 101.5 51 104.2 44.7 99 32.1"/>
  <polygon class="st2" points="51.7 45.3 47.4 45.3 41.4 32.1 45.7 32.1 51.7 45.3"/>
  <polygon class="st2" points="47.8 45.3 52.1 45.3 62.1 23.1 57.9 23.1 47.8 45.3"/>
  <polygon class="st2" points="115.7 30.1 120.9 30.1 120.9 44.7 125 44.7 125 30.1 130.2 30.1 130.2 25.9 115.7 25.9 115.7 30.1"/>
  <polygon class="st2" points="131.4 25.9 131.4 30.1 136.5 30.1 136.5 44.7 140.7 44.7 140.7 30.1 145.8 30.1 145.8 25.9 131.4 25.9"/>
  <g class="st3">
    <rect class="st1" x="4.2" y="16.7" width="33.6" height="36.6" transform="translate(-15.5 53.3) rotate(-85.7)"/>
  </g>
</svg>